<svg xmlns="http://www.w3.org/2000/svg" xmlns:svg="http://www.w3.org/2000/svg" id="svg5519" width="256" height="256" version="1.1" viewBox="0 0 256 256"><metadata id="metadata5525"/><g id="g5527"><path id="path6094" d="M 108.45543,243.45265 C 64.265475,235.00827 30.228247,205.92869 15.837277,164.32469 11.401764,151.50172 11.343453,151.03091 11.338426,128 11.33342,105.06225 11.407746,104.45192 15.722515,92 22.127792,73.515115 30.57258,60.094087 44.666667,46 67.995857,22.670809 94.753825,11.505431 127.33333,11.505431 159.91284,11.505431 186.67081,22.670809 210,46 c 14.08959,14.089583 22.70873,27.778695 28.54349,45.333333 8.47418,25.495687 8.47418,47.837637 0,73.333337 -10.63926,32.00964 -36.3195,59.0903 -68.04886,71.75976 -19.37574,7.73668 -43.82879,10.5061 -62.0392,7.02622 z" style="fill:#f5f5f5;fill-opacity:1;stroke-width:1.33333"/><path id="path6092" d="m 118.66667,189.49047 c -14.07084,-3.10946 -28.445587,-14.69318 -35.38951,-28.51822 -3.975824,-7.91569 -4.436225,-21.24145 -1.127159,-32.62424 1.824779,-6.27702 1.92347,-9.16216 0.65243,-19.0732 -2.400075,-18.714787 1.643513,-31.005707 9.391536,-28.546581 1.678454,0.532722 6.427998,4.188994 10.554543,8.12505 l 7.50281,7.156465 7.20767,-1.407745 c 4.05034,-0.791079 11.72261,-1.025484 17.51453,-0.535108 l 10.30684,0.872636 6.82695,-7.469764 c 5.02884,-5.502355 7.75744,-7.464386 10.35981,-7.449346 7.96716,0.04604 9.53288,4.450404 9.53288,26.815853 0,12.3239 0.62008,19.22511 2.14677,23.8927 1.45242,4.44054 1.97912,9.69655 1.62847,16.25054 -0.44727,8.35952 -1.16765,10.6922 -5.25625,17.02049 -10.67036,16.5154 -23.25066,24.94953 -38.73133,25.9664 -4.64988,0.30544 -10.55433,0.0913 -13.12099,-0.47593 z m 25.08257,-6.40856 c 15.66324,-7.40352 28.83425,-25.5934 27.99237,-38.65902 -0.37516,-5.82225 -0.74709,-6.43292 -4.58481,-7.52749 -5.9784,-1.70515 -10.85495,1.08988 -16.46159,9.43508 -5.26398,7.83517 -9.05312,9.63756 -13.58609,6.46255 -4.12363,-2.88831 -12.09397,-2.67563 -17.98132,0.4798 -5.90093,3.1627 -8.43534,2.1605 -13.05914,-5.16407 -4.38506,-6.94639 -9.590389,-10.77543 -14.648472,-10.77543 -5.791177,0 -7.420188,2.112 -7.420188,9.6202 0,12.2956 10.781243,26.42368 26.71601,35.00948 11.38085,6.1321 21.68838,6.48124 33.03323,1.1189 z m -24.62366,0.99501 c -2.9892,-1.28059 -9.06251,-9.41892 -12.92747,-17.32301 -3.36181,-6.87511 -0.60065,-7.92803 4.41694,-1.68431 l 4.25569,5.29564 13.40688,-0.0472 c 13.19121,-0.0464 13.44058,-0.10587 15.50191,-3.69756 2.17176,-3.78408 6.64954,-7.30256 7.81294,-6.13915 1.12837,1.12836 -7.6549,17.77912 -11.07172,20.98906 -2.42324,2.27652 -5.1235,3.12922 -10.87234,3.43333 -4.20663,0.22253 -8.9419,-0.14955 -10.52283,-0.82683 z m 14.29541,-2.79049 c 6.93248,-3.71016 -0.48018,-9.98858 -9.08766,-7.69712 -4.8371,1.28772 -5.39458,3.02805 -2.12668,6.63904 2.45165,2.70904 7.27852,3.16446 11.21434,1.05808 z m -8.54127,-15.2512 c -7.20042,-3.04298 -8.30951,-8.88263 -2.27927,-12.00099 5.17731,-2.67729 8.4457,-2.5674 12.11951,0.40747 3.88035,3.14212 2.83749,8.08693 -2.33174,11.0562 -3.06788,1.76224 -4.38671,1.85661 -7.5085,0.53732 z M 116,136.93333 C 116,134.28367 113.13555,132 109.81202,132 c -4.08251,0 -5.41934,2.68128 -2.42755,4.86893 3.13435,2.2919 8.61553,2.33287 8.61553,0.0644 z m -8,-2.26666 c 0,-0.73334 0.6,-1.33334 1.33333,-1.33334 0.73334,0 1.33334,0.6 1.33334,1.33334 0,0.73333 -0.6,1.33333 -1.33334,1.33333 C 108.6,136 108,135.4 108,134.66667 Z m 41.09776,-1.82598 c 0.67421,-3.39999 -5.86151,-2.77133 -8.36629,0.80474 -1.91615,2.73569 -1.89511,3.05088 0.25773,3.86248 2.8146,1.06108 7.50841,-1.64063 8.10856,-4.66722 z m -4.43109,0.49264 C 144.21344,132.6 144.778,132 145.92131,132 c 1.14328,0 2.07869,0.6 2.07869,1.33333 0,0.73334 -0.56459,1.33334 -1.25464,1.33334 -0.69005,0 -1.62547,-0.6 -2.07869,-1.33334 z M 99.189519,109.26109 c 4.429541,-5.26421 4.286891,-7.23532 -1.056216,-14.594423 -5.609107,-7.725471 -8.198411,-8.291298 -9.369751,-2.04752 -0.832467,4.437425 0.21476,20.145143 1.492361,22.384463 0.878978,1.54062 5.074538,-1.15628 8.933606,-5.74252 z m 66.857161,-3.23754 c 0.99416,-9.283273 0.0409,-17.400027 -2.20667,-18.789097 -2.03781,-1.259433 -8.87996,5.836528 -10.57236,10.964542 -0.80334,2.434195 -1.07442,5.642675 -0.60237,7.129965 0.77577,2.44423 9.29367,9.33771 11.53811,9.33771 0.50473,0 1.33421,-3.8894 1.84329,-8.64312 z" style="fill:#cda780;fill-opacity:1;stroke-width:1.33333"/></g></svg>