<?xml version="1.0" encoding="UTF-8" standalone="no"?>
<svg
   xmlns:dc="http://purl.org/dc/elements/1.1/"
   xmlns:cc="http://creativecommons.org/ns#"
   xmlns:rdf="http://www.w3.org/1999/02/22-rdf-syntax-ns#"
   xmlns:svg="http://www.w3.org/2000/svg"
   xmlns="http://www.w3.org/2000/svg"
   xmlns:sodipodi="http://sodipodi.sourceforge.net/DTD/sodipodi-0.dtd"
   xmlns:inkscape="http://www.inkscape.org/namespaces/inkscape"
   inkscape:export-ydpi="72"
   inkscape:export-xdpi="72"
   inkscape:export-filename="C:\Users\kiera\Documents\GitHub\happyshibe\readme-assets\icons\happyshibe.png"
   inkscape:version="1.0 (4035a4fb49, 2020-05-01)"
   sodipodi:docname="happyshibe.svg"
   viewBox="0 0 853.33331 853.33331"
   height="853.33331"
   width="853.33331"
   id="svg4349"
   version="1.1">
  <metadata
     id="metadata4355">
    <rdf:RDF>
      <cc:Work
         rdf:about="">
        <dc:format>image/svg+xml</dc:format>
        <dc:type
           rdf:resource="http://purl.org/dc/dcmitype/StillImage" />
        <dc:title></dc:title>
      </cc:Work>
    </rdf:RDF>
  </metadata>
  <defs
     id="defs4353" />
  <sodipodi:namedview
     inkscape:current-layer="g4357"
     inkscape:window-maximized="1"
     inkscape:window-y="-9"
     inkscape:window-x="-9"
     inkscape:cy="426.66666"
     inkscape:cx="426.66666"
     inkscape:zoom="0.97265627"
     showgrid="false"
     id="namedview4351"
     inkscape:window-height="1001"
     inkscape:window-width="1920"
     inkscape:pageshadow="2"
     inkscape:pageopacity="0"
     guidetolerance="10"
     gridtolerance="10"
     objecttolerance="10"
     borderopacity="1"
     bordercolor="#666666"
     pagecolor="#ffffff" />
  <g
     id="g4357"
     inkscape:label="Image"
     inkscape:groupmode="layer">
    <g
       id="g4932">
      <path
         id="path4940"
         d="m 401.45114,695.87141 c -29.00632,-5.90244 -50.4973,-13.90639 -69.42983,-25.85797 -2.91591,-1.84074 -5.52175,-3.34679 -5.79073,-3.34679 -0.89414,0 -22.83185,-14.94061 -26.89725,-18.31829 -7.381,-6.13238 -26.58128,-25.15651 -35.87668,-35.54751 -15.39312,-17.20744 -32.8027,-45.39519 -39.19943,-63.46753 -3.76424,-10.63493 -8.19196,-26.62825 -9.05929,-32.72307 -1.22579,-8.6136 -1.51514,-24.66886 -0.45638,-25.32321 0.54024,-0.33389 2.29816,-3.16007 3.90648,-6.2804 8.06915,-15.65501 24.10943,-24.17488 45.11238,-23.96164 16.62158,0.16876 29.76278,5.99341 44.51565,19.73093 8.43758,7.85688 14.3382,15.45264 23.73786,30.55739 4.56354,7.33333 11.0773,16.2304 14.47503,19.77128 12.43931,12.96331 18.64143,13.58872 37.47204,3.77863 16.76813,-8.73562 29.32403,-12.21658 44.0654,-12.21658 14.43002,0 23.71236,2.4049 41.35936,10.71552 7.72882,3.6398 15.82882,6.60464 18,6.58854 10.24697,-0.076 21.53428,-10.05936 30.73742,-27.18648 8.38247,-15.59986 17.23098,-27.75162 26.92572,-36.97744 16.43461,-15.63971 30.40775,-20.90018 51.34099,-19.32836 16.64017,1.24945 27.62329,7.84182 37.42236,22.46188 4.3167,6.44048 4.38266,6.76454 3.96292,19.47125 -0.49952,15.12181 -1.86746,22.75719 -7.33147,40.92176 -3.78925,12.59704 -17.82196,41.94782 -23.78748,49.75388 -22.55463,29.51333 -40.65477,49.76376 -53.09731,59.40517 -3.90925,3.02919 -9.60925,7.45685 -12.66666,9.83925 -9.98144,7.77778 -33.92863,21.24168 -46.45803,26.12025 -35.06742,13.6542 -64.3363,17.2488 -92.98307,11.41954 z m 49.18149,-16.66706 c 15.19638,-4.41269 25.61698,-12.14363 39.03032,-28.95626 9.05529,-11.35015 22.97204,-36.4752 30.24989,-54.61265 1.69888,-4.23383 4.81348,-10.07864 6.92133,-12.98846 2.10787,-2.90981 3.83248,-6.79577 3.83248,-8.63545 0,-2.80105 -0.62788,-3.34488 -3.86188,-3.34488 -5.0167,0 -9.55865,5.17668 -19.48272,22.20536 -16.90864,29.01353 -27.7557,33.47453 -59.1231,24.31517 -17.29963,-5.05154 -25.50533,-4.80146 -43.98587,1.34054 -19.06449,6.33606 -30.61588,5.30513 -40.52144,-3.61647 -2.99912,-2.7012 -9.74417,-11.51328 -14.989,-19.58241 -5.24482,-8.06912 -11.53128,-16.35002 -13.96989,-18.40198 -9.14665,-7.6964 -14.48515,-0.68198 -6.82091,8.96222 2.22104,2.79481 5.61208,8.46309 7.53563,12.59618 9.61788,20.66574 12.39567,25.85824 20.41883,38.16876 21.79764,33.4457 43.57644,46.47964 75.46702,45.16468 6.6,-0.27213 15.28469,-1.4486 19.29931,-2.61435 z m -5.48947,-83.64851 c 10.38369,-5.0464 22.15919,-17.35994 24.35243,-25.46515 2.06217,-7.62084 0.5017,-20.29001 -3.15676,-25.6292 -6.34788,-9.26412 -24.27119,-14.7255 -43.32813,-13.20242 -22.55975,1.80302 -34.16222,8.19353 -38.11444,20.99302 -6.30907,20.43217 7.64297,39.19571 35.10373,47.20957 7.7611,2.26494 14.64692,1.19527 25.14317,-3.90582 z M 341.33332,450.82991 c 0,-3.0028 3.32571,-6.07071 5.27494,-4.86602 0.76545,0.47308 1.39173,2.32474 1.39173,4.11479 0,2.58273 -0.68816,3.25464 -3.33333,3.25464 -2.37199,0 -3.33334,-0.722 -3.33334,-2.50341 z m 165.33333,-3.49659 c 0,-2.38165 0.72063,-3.33333 2.52402,-3.33333 2.69024,0 4.12357,2.26188 3.16846,5 -0.31976,0.91666 -1.73137,1.66666 -3.13692,1.66666 -1.83704,0 -2.55556,-0.9372 -2.55556,-3.33333 z M 254.07757,370.30551 c -3.24099,-4.94639 -4.49339,-10.31283 -7.53927,-32.30552 -3.48783,-25.18361 -4.74876,-60.4839 -2.64329,-74 1.93896,-12.44733 6.8048,-23.46476 11.25961,-25.49452 6.77151,-3.08529 12.68612,-0.40869 23.49533,10.63258 14.73244,15.04873 36.03411,47.96492 38.75177,59.88079 1.89843,8.32383 -5.70641,24.02358 -16.57438,34.21686 -18.45044,17.30501 -33.24947,28.11538 -40.4644,29.55837 -3.40515,0.68103 -4.49001,0.25149 -6.28537,-2.48856 z m 325.05781,-6.39464 c -17.52704,-9.18607 -39.88419,-29.58361 -46.29734,-42.23933 -4.46348,-8.80826 -4.7242,-18.74072 -0.69188,-26.35796 12.07707,-22.81412 16.2542,-29.74972 25.45973,-42.2726 7.70553,-10.48233 20.91904,-21.04099 26.33151,-21.04099 4.57726,0 9.92361,4.82415 12.69366,11.45382 6.09608,14.58998 7.71564,49.21024 3.99383,85.37379 -2.80852,27.28952 -4.38817,34.85536 -7.7722,37.22563 -3.82295,2.67769 -4.81679,2.52247 -13.71731,-2.14236 z"
         style="fill:#faf9f8;stroke-width:1.33333" />
      <path
         id="path4938"
         d="M 0,426.66665 V 0 H 426.66665 853.33331 V 426.66665 853.33331 H 426.66665 0 Z m 455.56793,269.22688 c 19.17082,-3.69959 40.04683,-10.76814 53.53295,-18.12608 13.51605,-7.37427 26.49645,-15.30991 31.79136,-19.43583 3.05741,-2.3824 8.75741,-6.81006 12.66666,-9.83925 12.44254,-9.64141 30.54268,-29.89184 53.09731,-59.40517 5.96552,-7.80606 19.99823,-37.15684 23.78748,-49.75388 5.47655,-18.20628 6.83188,-25.79895 7.33785,-41.10743 0.38248,-11.57201 0.1124,-13.52436 -2.30521,-16.66666 -1.95025,-2.5348 -2.08164,-3.03631 -0.45651,-1.74242 1.95947,1.5601 2.40375,1.4994 3.14391,-0.42941 1.86528,-4.86085 -6.71741,-46.22273 -14.95141,-72.05408 -3.42056,-10.73085 -3.82796,-13.90372 -3.85206,-30 -0.0148,-9.9 0.79776,-29.4 1.80574,-43.33333 2.21612,-30.6336 1.38882,-69.66593 -1.82198,-85.96201 -2.38882,-12.12429 -7.35074,-25.252 -11.59704,-30.68219 -1.44329,-1.84569 -5.06709,-5.0058 -8.05289,-7.02246 -16.37659,-11.06108 -38.72977,2.57092 -76.76689,46.81597 -10.49219,12.2046 -16.82676,18.44711 -20.11207,19.8198 -5.34462,2.23313 -8.07552,2.05621 -36.14848,-2.34179 -32.2351,-5.05004 -68.16771,-3.83261 -99.33333,3.36554 -13.8298,3.19418 -21.34745,3.78241 -24.81304,1.94156 -1.75282,-0.93108 -14.88696,-13.51095 -29.18696,-27.95524 -26.44945,-26.71635 -36.38074,-34.42292 -49.82477,-38.66339 -10.91849,-3.44387 -22.79354,1.13461 -28.97638,11.17199 -11.97272,19.43682 -14.90898,66.40016 -7.80563,124.84555 4.28369,35.24564 3.89025,46.08858 -2.62287,72.28436 -2.96956,11.9436 -6.34606,27.11564 -7.50333,33.71564 -2.67772,15.27117 -3.74703,34 -1.9412,34 0.73747,0 1.34085,-0.7 1.34085,-1.55556 0,-0.85555 0.39632,-1.15923 0.88072,-0.67484 0.48439,0.4844 -0.0232,1.9344 -1.128,3.22223 -3.44024,4.01021 -1.98188,23.89381 3.05252,41.61844 8.51356,29.97378 23.64539,57.37533 44.65142,80.85726 9.2954,10.391 28.49568,29.41513 35.87668,35.54751 4.0654,3.37768 26.00311,18.31829 26.89725,18.31829 0.26898,0 2.87482,1.50605 5.79073,3.34679 14.13517,8.92314 27.89971,14.88993 47.42983,20.56035 28.94913,8.40518 51.83878,10.00491 76.11679,5.31974 z M 420.3587,681.74266 c 1.29729,-0.33805 3.09729,-0.31583 4,0.0495 0.9027,0.36524 -0.15871,0.64182 -2.35871,0.61465 -2.2,-0.0272 -2.93859,-0.326 -1.64129,-0.66405 z m 12.72462,0.0133 c 0.96249,-0.38516 2.11251,-0.3378 2.55556,0.1052 0.44305,0.44306 -0.34445,0.75819 -1.75,0.7003 -1.55327,-0.064 -1.8692,-0.37992 -0.80556,-0.80555 z m 38.25,-13.75601 c 1.32732,-1.46666 2.71331,-2.66666 3.07997,-2.66666 0.36667,0 -0.41932,1.2 -1.74664,2.66666 -1.32732,1.46667 -2.7133,2.66667 -3.07997,2.66667 -0.36667,0 0.41932,-1.2 1.74664,-2.66667 z m -96.71221,-7.66666 -7.28779,-7.66667 7.66667,7.28779 c 4.21667,4.00828 7.66667,7.45828 7.66667,7.66666 0,0.98967 -1.27496,-0.16521 -8.04555,-7.28778 z m 101.37888,4.58278 c 0,-0.22946 1.95,-2.17946 4.33333,-4.33333 l 4.33333,-3.91612 -3.91612,4.33333 c -3.65037,4.03928 -4.75054,4.9462 -4.75054,3.91612 z m 10,-11.58278 c 1.32732,-1.46667 2.7133,-2.66667 3.07997,-2.66667 0.36667,0 -0.41932,1.2 -1.74664,2.66667 -1.32732,1.46666 -2.71331,2.66666 -3.07997,2.66666 -0.36667,0 0.41932,-1.2 1.74664,-2.66666 z m -122.17008,-5 c -1.65849,-2.11475 -1.61133,-2.16191 0.50341,-0.50342 2.221,1.74183 2.92731,2.83675 1.82992,2.83675 -0.27686,0 -1.32686,-1.05 -2.33333,-2.33333 z m 127.50341,-1.66667 c 1.32732,-1.46667 2.71331,-2.66667 3.07997,-2.66667 0.36667,0 -0.41932,1.2 -1.74664,2.66667 -1.32732,1.46667 -2.7133,2.66667 -3.07997,2.66667 -0.36667,0 0.41932,-1.2 1.74664,-2.66667 z m -131.50341,-3.66667 c -1.65849,-2.11474 -1.61133,-2.1619 0.50341,-0.50341 2.221,1.74183 2.92731,2.83675 1.82992,2.83675 -0.27686,0 -1.32686,-1.05 -2.33333,-2.33334 z m 108.50341,-21.28833 c 2.01667,-0.30551 5.31667,-0.30551 7.33333,0 2.01667,0.30549 0.36667,0.55545 -3.66666,0.55545 -4.03334,0 -5.68334,-0.24996 -3.66667,-0.55545 z m -15.25,-2.62248 c 0.96249,-0.38516 2.11251,-0.3378 2.55556,0.1052 0.44305,0.44305 -0.34445,0.75819 -1.75,0.70029 -1.55327,-0.064 -1.8692,-0.37992 -0.80556,-0.80554 z m -92.4794,-6.08919 -5.2706,-5.66666 5.66667,5.2706 c 5.26995,4.9016 6.27937,6.06273 5.2706,6.06273 -0.21784,0 -2.76784,-2.55 -5.66667,-5.66667 z m 132.7294,-0.33333 c 2.48771,-2.56667 4.82311,-4.66667 5.18977,-4.66667 0.36667,0 -1.36873,2.1 -3.85644,4.66667 -2.4877,2.56667 -4.8231,4.66667 -5.18977,4.66667 -0.36667,0 1.36873,-2.1 3.85644,-4.66667 z m -78.91666,2.42252 c 0.96249,-0.38516 2.1125,-0.3378 2.55556,0.1052 0.44305,0.44305 -0.34446,0.75819 -1.75,0.70029 -1.55327,-0.064 -1.8692,-0.37992 -0.80556,-0.80554 z m 18.58333,-1.30556 c 0.91666,-0.36988 2.41666,-0.36988 3.33333,0 0.91667,0.36988 0.16667,0.67252 -1.66667,0.67252 -1.83333,0 -2.58333,-0.30264 -1.66666,-0.67252 z m -6.66667,-13.33333 c 0.91667,-0.36988 2.41667,-0.36988 3.33333,0 0.91667,0.36988 0.16667,0.67252 -1.66666,0.67252 -1.83333,0 -2.58333,-0.30264 -1.66667,-0.67252 z m -27.83674,-10.78363 c -1.6585,-2.11475 -1.61134,-2.16191 0.50341,-0.50341 2.221,1.74182 2.92731,2.83674 1.82992,2.83674 -0.27687,0 -1.32687,-1.05 -2.33333,-2.33333 z m -72,-5.33333 c -1.6585,-2.11475 -1.61134,-2.16191 0.50341,-0.50342 1.28333,1.00647 2.33333,2.05647 2.33333,2.33334 0,1.09738 -1.09492,0.39108 -2.83674,-1.82992 z m 7.37673,-7.33334 -2.53999,-3 3,2.53999 c 2.81926,2.38696 3.60699,3.46001 2.53999,3.46001 -0.25301,0 -1.60301,-1.35 -3,-3 z m 48.89861,-17.77777 c 0.064,-1.55327 0.37992,-1.8692 0.80555,-0.80556 0.38516,0.96249 0.3378,2.11251 -0.1052,2.55556 -0.44305,0.44305 -0.75819,-0.34445 -0.70029,-1.75 z m 6.5614,-15.88889 c 1.72234,-1.83333 3.43151,-3.33333 3.79818,-3.33333 0.36666,0 -0.74251,1.5 -2.46484,3.33333 -1.72234,1.83333 -3.43151,3.33333 -3.79818,3.33333 -0.36666,0 0.74251,-1.5 2.46484,-3.33333 z m -29.58333,-2.91081 c 0.96249,-0.38516 2.11251,-0.3378 2.55556,0.1052 0.44305,0.44305 -0.34445,0.75818 -1.75,0.70029 -1.55327,-0.064 -1.8692,-0.37992 -0.80556,-0.80555 z m 23.58333,-6.46616 c 10.25276,-5.73298 25.22399,-11.36756 29.80712,-11.21826 1.20608,0.0393 -2.31273,1.40582 -7.8196,3.03672 -5.50685,1.63091 -14.6286,5.49876 -20.27052,8.59523 -5.64193,3.09647 -10.73632,5.61212 -11.32086,5.59033 -0.58454,-0.0217 3.7372,-2.7236 9.60386,-6.00402 z m 11.33334,5.54022 c 0,-0.27686 1.05,-1.32686 2.33333,-2.33333 2.11475,-1.65849 2.16191,-1.61133 0.50341,0.50341 -1.74182,2.221 -2.83674,2.92731 -2.83674,1.82992 z m -45.40511,-5.82992 -4.59489,-5 5,4.5949 c 2.75,2.52718 5,4.77718 5,5 0,1.01816 -1.1283,0.0589 -5.40511,-4.5949 z m 120.73844,0.0269 c -3.66667,-1.93352 -10.26667,-4.92624 -14.66667,-6.6505 -4.4,-1.72425 -6.2,-2.78932 -4,-2.36682 4.38585,0.84228 26,10.75892 26,11.92888 0,0.98272 0.20893,1.06566 -7.33333,-2.91156 z m 28,2.79254 c 0.73333,-0.64545 3.43114,-2.96889 5.99516,-5.16321 l 4.66181,-3.98967 -3.32848,3.7891 c -1.83068,2.084 -4.52849,4.40745 -5.99516,5.16321 -1.46667,0.75576 -2.06667,0.84601 -1.33333,0.20057 z m -75.58333,-5.39702 c 0.96249,-0.38516 2.1125,-0.3378 2.55556,0.1052 0.44305,0.44305 -0.34446,0.75818 -1.75,0.70029 -1.55327,-0.064 -1.8692,-0.37992 -0.80556,-0.80555 z m 13.33333,0 c 0.96249,-0.38516 2.1125,-0.3378 2.55556,0.1052 0.44305,0.44305 -0.34446,0.75818 -1.75,0.70029 -1.55327,-0.064 -1.8692,-0.37992 -0.80556,-0.80555 z m 6.58333,-7.97223 c 0.91667,-0.36988 2.41667,-0.36988 3.33333,0 0.91667,0.36988 0.16667,0.67252 -1.66666,0.67252 -1.83334,0 -2.58334,-0.30264 -1.66667,-0.67252 z m -20.66666,-1.43035 c 3.48333,-0.27466 9.18333,-0.27466 12.66666,0 3.48333,0.27467 0.63333,0.49939 -6.33333,0.49939 -6.96667,0 -9.81667,-0.22472 -6.33333,-0.49939 z m -114.39607,-42.01988 -5.2706,-5.66666 5.66667,5.2706 c 5.26994,4.9016 6.27937,6.06273 5.2706,6.06273 -0.21784,0 -2.76784,-2.55 -5.66667,-5.66667 z m 236.7294,-4.33333 c 3.98322,-4.03333 7.54223,-7.33333 7.9089,-7.33333 0.36667,0 -2.59235,3.3 -6.57557,7.33333 -3.98323,4.03333 -7.54224,7.33333 -7.90891,7.33333 -0.36666,0 2.59235,-3.3 6.57558,-7.33333 z m -319.32485,-0.48447 c 2.19533,-2.46646 6.1702,-5.87897 8.83304,-7.58336 6.1484,-3.93536 18.68357,-7.61358 23.47619,-6.88868 3.64385,0.55114 3.63958,0.55904 -0.40904,0.75674 -5.40259,0.2638 -17.49219,3.89956 -21.80531,6.5576 -1.89019,1.16485 -5.83288,4.26088 -8.76155,6.88005 l -5.32485,4.76212 z m 73.82144,-2.51553 c -1.65849,-2.11475 -1.61133,-2.16191 0.50341,-0.50341 2.221,1.74182 2.92731,2.83674 1.82992,2.83674 -0.27686,0 -1.32686,-1.05 -2.33333,-2.33333 z m 328.75286,-1.84589 c -2.15387,-2.29859 -6.58359,-5.89859 -9.84383,-8 -3.26024,-2.10143 -5.30027,-3.82078 -4.53339,-3.82078 1.94636,0 11.01938,6.83098 15.71055,11.82831 2.15387,2.29443 3.61612,4.17169 3.24945,4.17169 -0.36666,0 -2.42892,-1.88065 -4.58278,-4.17922 z m -73.24502,-3.82796 c 0.89295,-1.44482 8.66223,-5.77282 8.66223,-4.82543 0,0.31307 -2.13605,1.82951 -4.74677,3.36988 -2.61074,1.54036 -4.37268,2.19536 -3.91546,1.45555 z m -271.70343,-2.78438 c -1.3011,-0.75741 -6.1011,-1.91133 -10.66666,-2.56425 l -8.301,-1.18712 8.1398,0.46081 c 4.47689,0.25346 9.87689,1.40159 12,2.55142 2.1231,1.14984 3.2602,2.09638 2.52686,2.10344 -0.73333,0.007 -2.39788,-0.60687 -3.699,-1.3643 z m 282.72359,-4.0997 c 0.7748,-0.7748 2.19576,-1.14639 3.15768,-0.82575 0.9986,0.33287 0.3942,0.93725 -1.40873,1.40873 -2.2178,0.57996 -2.73837,0.40644 -1.74895,-0.58298 z m 11.9754,-3.32511 c 0.91667,-0.36988 2.41667,-0.36988 3.33334,0 0.91666,0.36988 0.16666,0.67252 -1.66667,0.67252 -1.83333,0 -2.58333,-0.30264 -1.66667,-0.67252 z m 24.69204,-0.0409 c 1.2973,-0.33806 3.0973,-0.31583 4,0.0495 0.90271,0.36524 -0.1587,0.64183 -2.3587,0.61466 -2.2,-0.0272 -2.93859,-0.326 -1.6413,-0.66406 z m -14.00149,-1.37566 c 2.39647,-0.29674 5.99647,-0.29062 8,0.0136 2.00353,0.30424 0.0428,0.54703 -4.35721,0.53955 -4.4,-0.008 -6.03926,-0.2564 -3.64279,-0.55315 z m -82.25194,-7.81146 c 0.064,-1.55327 0.37992,-1.8692 0.80554,-0.80556 0.38516,0.96249 0.3378,2.1125 -0.1052,2.55556 -0.44305,0.44305 -0.75818,-0.34446 -0.70029,-1.75 z m 2.22806,-4.10527 c 0.91667,-0.36988 2.41667,-0.36988 3.33334,0 0.91666,0.36988 0.16666,0.67252 -1.66667,0.67252 -1.83333,0 -2.58333,-0.30264 -1.66667,-0.67252 z M 257.33333,374.3855 c 0.36666,-0.36096 2.75297,-1.36167 5.30289,-2.2238 2.54993,-0.86212 4.04993,-0.99366 3.33333,-0.2923 -0.71658,0.70138 -3.10289,1.70208 -5.30289,2.2238 -2.2,0.52174 -3.7,0.65326 -3.33333,0.2923 z m 10.66666,-4.13295 c 0,-0.31068 2.55,-2.24663 5.66667,-4.30211 3.11667,-2.05548 4.9628,-2.88521 4.10251,-1.84384 -1.65426,2.00246 -9.76918,7.10768 -9.76918,6.14595 z m 311.34277,-4.90396 c -0.46712,-0.75581 0.0681,-0.97933 1.25464,-0.52401 2.30989,0.88638 2.73252,1.84208 0.81461,1.84208 -0.69005,0 -1.62123,-0.59314 -2.06925,-1.31807 z m -329.90417,-3.45971 c 0.064,-1.55326 0.37992,-1.8692 0.80555,-0.80556 0.38516,0.9625 0.3378,2.11251 -0.1052,2.55556 -0.44307,0.44306 -0.75819,-0.34445 -0.70029,-1.75 z m 33.22807,-2.55556 c 1.72233,-1.83333 3.43151,-3.33333 3.79817,-3.33333 0.36667,0 -0.7425,1.5 -2.46484,3.33333 -1.72233,1.83334 -3.4315,3.33334 -3.79817,3.33334 -0.36667,0 0.74251,-1.5 2.46484,-3.33334 z m 314.20832,-1.33333 c 0.44666,-2.93333 1.0325,-5.58333 1.30188,-5.88889 1.00996,-1.14558 0.25386,5.99594 -0.90581,8.55556 -0.84203,1.85853 -0.96205,1.0504 -0.39607,-2.66667 z m -348.66447,-2 c 0,-1.83333 0.30264,-2.58333 0.67252,-1.66667 0.36988,0.91667 0.36988,2.41667 0,3.33334 -0.36988,0.91666 -0.67252,0.16666 -0.67252,-1.66667 z m 41.12282,-1.75055 c 0,-0.22946 1.95,-2.17946 4.33333,-4.33333 l 4.33333,-3.91612 -3.91612,4.33333 c -3.65037,4.03928 -4.75054,4.9462 -4.75054,3.91612 z m -42.40674,-6.91612 c 0.0272,-2.2 0.326,-2.93858 0.66406,-1.64129 0.33805,1.29729 0.31582,3.09729 -0.0495,4 -0.36524,0.90271 -0.64183,-0.15871 -0.61465,-2.35871 z m 352.0763,-1.33333 c 0.0148,-2.93333 0.28785,-3.97633 0.60677,-2.31779 0.31892,1.65855 0.30682,4.05855 -0.0269,5.33334 -0.33372,1.27478 -0.59467,-0.0823 -0.57987,-3.01555 z m 1.37844,-12 c 0.0107,-3.66667 0.26896,-5.00841 0.57543,-2.98167 0.30648,2.02675 0.29828,5.02675 -0.0181,6.66667 -0.31648,1.63992 -0.56722,-0.0183 -0.55722,-3.685 z m -354.83748,2 c 0,-1.83333 0.30264,-2.58333 0.67252,-1.66667 0.36988,0.91667 0.36988,2.41667 0,3.33334 -0.36988,0.91666 -0.67252,0.16666 -0.67252,-1.66667 z m -1.33334,-10.66667 c 0,-1.83333 0.30264,-2.58333 0.67252,-1.66666 0.36988,0.91666 0.36988,2.41666 0,3.33333 -0.36988,0.91667 -0.67252,0.16667 -0.67252,-1.66667 z m 357.48595,-5.33333 c 0,-3.3 0.26003,-4.65 0.57783,-3 0.31781,1.65 0.31781,4.35 0,6 -0.3178,1.65 -0.57783,0.3 -0.57783,-3 z m -71.09093,-0.11413 c -0.81854,-1.52947 -1.23712,-3.032 -0.93016,-3.33896 0.30696,-0.30696 1.24271,0.94442 2.07944,2.78085 1.83743,4.03272 0.94279,4.46717 -1.14928,0.55811 z m -287.67894,-7.2192 c 0.0272,-2.2 0.326,-2.93859 0.66406,-1.6413 0.33805,1.2973 0.31582,3.0973 -0.0495,4 -0.36524,0.90271 -0.64183,-0.1587 -0.61465,-2.3587 z m 285.45474,-4 c 0.0107,-3.66667 0.26896,-5.00841 0.57543,-2.98167 0.30648,2.02675 0.29828,5.02675 -0.0181,6.66667 -0.31648,1.63992 -0.56723,-0.0183 -0.55723,-3.685 z m 74.7336,-19.33333 c 0,-5.5 0.23535,-7.75 0.52301,-5 0.28766,2.75 0.28766,7.25 0,10 -0.28766,2.75 -0.52301,0.5 -0.52301,-5 z m -361.34408,-2 c 0.005,-5.13334 0.2469,-7.06995 0.53554,-4.3036 0.28863,2.76636 0.28379,6.96636 -0.0107,9.33333 -0.29455,2.36699 -0.53071,0.1036 -0.52479,-5.02973 z m 291.56247,3.33333 c 1.49648,-2.93333 3.02087,-5.33333 3.38753,-5.33333 0.36667,0 -0.55772,2.4 -2.0542,5.33333 -1.49648,2.93333 -3.02086,5.33333 -3.38753,5.33333 -0.36667,0 0.55772,-2.4 2.0542,-5.33333 z m 4.75239,-8.39084 c 0.5007,-1.31496 1.24625,-2.05496 1.65677,-1.64444 0.41052,0.41052 8.5e-4,1.48639 -0.91037,2.39084 -1.31683,1.30701 -1.46998,1.15387 -0.7464,-0.7464 z m -235.58913,-1.94249 c -1.65849,-2.11475 -1.61133,-2.16191 0.50341,-0.50342 1.28334,1.00647 2.33333,2.05647 2.33333,2.33334 0,1.09738 -1.09491,0.39108 -2.83674,-1.82992 z m -5.33333,-8 c -1.6585,-2.11475 -1.61134,-2.16191 0.50341,-0.50342 1.28333,1.00647 2.33333,2.05647 2.33333,2.33334 0,1.09738 -1.09492,0.39108 -2.83674,-1.82992 z m -54.28607,-7 c 0,-1.83334 0.30264,-2.58334 0.67252,-1.66667 0.36988,0.91667 0.36988,2.41667 0,3.33333 -0.36988,0.91667 -0.67252,0.16667 -0.67252,-1.66666 z m 358.76547,-1.33334 c 0,-2.56666 0.2744,-3.61666 0.60977,-2.33333 0.33536,1.28333 0.33536,3.38333 0,4.66667 -0.33537,1.28333 -0.60977,0.23333 -0.60977,-2.33334 z m -1.43215,-8 c 0,-1.83333 0.30264,-2.58333 0.67252,-1.66666 0.36988,0.91666 0.36988,2.41666 0,3.33333 -0.36988,0.91667 -0.67252,0.16667 -0.67252,-1.66667 z m -1.43858,-6.1111 c 0.064,-1.55327 0.37992,-1.8692 0.80554,-0.80556 0.38516,0.96249 0.3378,2.11249 -0.1052,2.55556 -0.44305,0.44305 -0.75818,-0.34446 -0.70029,-1.75 z m -352.10526,-1.41183 c 0,-0.7154 0.93309,-2.4654 2.07356,-3.88889 1.95516,-2.44042 1.98292,-2.39787 0.48605,0.74516 -1.94374,4.08137 -2.55961,4.83778 -2.55961,3.14373 z m 350.16471,-3.86195 c -1.28664,-3.35292 -0.90708,-4.21806 0.66471,-1.51512 0.77825,1.33834 1.13413,2.71422 0.79084,3.05751 -0.3433,0.34329 -0.9983,-0.35079 -1.45555,-1.54239 z m -23.68685,-8.28178 c 2.5482,-2.38334 5.26662,-4.33334 6.04096,-4.33334 0.77432,0 -0.0756,0.99368 -1.88882,2.20818 -1.81317,1.21449 -4.53161,3.16449 -6.04096,4.33333 -1.50936,1.16884 -0.65938,0.17516 1.88882,-2.20817 z m -314.81119,0.11693 c 0.91666,-0.36988 2.41666,-0.36988 3.33333,0 0.91667,0.36988 0.16667,0.67252 -1.66667,0.67252 -1.83333,0 -2.58333,-0.30264 -1.66666,-0.67252 z"
         style="fill:#cba57e;stroke-width:1.33333" />
      <path
         id="path4936"
         d="m 415.02536,680.40933 c 1.2973,-0.33806 3.0973,-0.31583 4,0.0495 0.90271,0.36524 -0.1587,0.64183 -2.3587,0.61466 -2.2,-0.0272 -2.93859,-0.326 -1.6413,-0.66406 z m 12,0 c 1.29729,-0.33806 3.09729,-0.31583 4,0.0495 0.90271,0.36524 -0.15871,0.64183 -2.35871,0.61466 -2.19999,-0.0272 -2.93858,-0.326 -1.64129,-0.66406 z m 10.64129,0.005 c 1.28334,-0.33536 3.38334,-0.33536 4.66667,0 1.28333,0.33537 0.23333,0.60977 -2.33333,0.60977 -2.56667,0 -3.61667,-0.2744 -2.33334,-0.60977 z m -31.33333,-1.29727 c 0.91667,-0.36988 2.41667,-0.36988 3.33334,0 0.91666,0.36988 0.16666,0.67252 -1.66667,0.67252 -1.83333,0 -2.58333,-0.30264 -1.66667,-0.67252 z m -5.65722,-1.76836 c -0.46712,-0.75581 0.0681,-0.97933 1.25464,-0.52401 2.30989,0.88639 2.73252,1.84208 0.81461,1.84208 -0.69005,0 -1.62123,-0.59313 -2.06925,-1.31807 z m 10.28866,-5.97418 c -6.28088,-1.96135 -12.06961,-5.37001 -14.61772,-8.60756 -3.77533,-4.79684 -9.9022,-19.57895 -10.61717,-25.61571 -0.73628,-6.2172 -0.63179,-6.48493 2.53085,-6.48493 3.105,0 11.90714,-2.46408 26.96415,-7.54837 9.36655,-3.1628 19.66022,-2.71372 32.01128,1.39654 5.81321,1.93456 13.81338,3.89863 17.77814,4.36462 l 7.20868,0.84724 -0.78509,4.80332 c -2.95148,18.05792 -11.10875,30.84041 -23.05273,36.12381 -7.24732,3.20582 -28.17145,3.60876 -37.42039,0.72058 z m -28.39902,-4.37487 -3.23242,-3.66666 3.66667,3.23241 c 3.42705,3.02119 4.27812,4.10092 3.23241,4.10092 -0.23882,0 -1.88882,-1.65 -3.66666,-3.66667 z m -18.73583,-20 c -1.65849,-2.11474 -1.61133,-2.1619 0.50341,-0.50341 2.221,1.74183 2.92731,2.83675 1.82992,2.83675 -0.27686,0 -1.32686,-1.05 -2.33333,-2.33334 z m 141.61046,-23 c 1.94375,-4.08137 2.55962,-4.83778 2.55962,-3.14373 0,0.7154 -0.9331,2.4654 -2.07356,3.88889 -1.95516,2.44042 -1.98292,2.39787 -0.48606,-0.74516 z M 347.2785,622.57794 c -0.48338,-0.78212 -0.59291,-1.708 -0.2434,-2.0575 0.34949,-0.34951 0.99074,0.29041 1.425,1.42204 0.90157,2.34948 0.1332,2.76274 -1.1816,0.63546 z m 29.80482,0.51123 c 0.9625,-0.38516 2.11251,-0.3378 2.55556,0.1052 0.44306,0.44305 -0.34445,0.75819 -1.75,0.70029 -1.55326,-0.064 -1.8692,-0.37992 -0.80556,-0.80554 z m 9.91667,-0.008 c 1.28333,-0.33536 3.38333,-0.33536 4.66667,0 1.28333,0.33537 0.23333,0.60977 -2.33334,0.60977 -2.56666,0 -3.61666,-0.2744 -2.33333,-0.60977 z m 75.41666,-1.32504 c 0.9625,-0.38516 2.11251,-0.3378 2.55556,0.1052 0.44306,0.44305 -0.34445,0.75819 -1.75,0.70029 -1.55326,-0.064 -1.8692,-0.37992 -0.80556,-0.80554 z m -62.66666,-1.33333 c 0.96249,-0.38516 2.11251,-0.3378 2.55556,0.1052 0.44305,0.44305 -0.34445,0.75818 -1.75,0.70029 -1.55327,-0.064 -1.8692,-0.37992 -0.80556,-0.80555 z m 110.51053,-6.40578 c 1.21957,-2.55746 2.45411,-4.41321 2.74341,-4.1239 0.60995,0.60994 -3.4376,8.77382 -4.34994,8.77382 -0.33598,0 0.38697,-2.09246 1.60653,-4.64992 z m -85.24498,-0.29309 c 1.65854,-0.31892 4.05854,-0.30681 5.33333,0.0269 1.27478,0.33372 -0.0823,0.59467 -3.01555,0.57987 -2.93333,-0.0148 -3.97633,-0.28785 -2.31778,-0.60677 z M 338.859,605.66665 c -1.45493,-3.40005 -1.42201,-3.47848 0.45266,-1.07849 1.11192,1.42349 2.02166,3.07349 2.02166,3.66666 0,2.02655 -0.90444,1.08048 -2.47432,-2.58817 z m 76.47432,-7.61852 c -5.13548,-2.35149 -4.24641,-2.36912 4,-0.0793 4.03772,1.12117 5.35219,1.86293 3.33334,1.88101 -1.83334,0.0164 -5.13334,-0.79435 -7.33334,-1.80172 z m 15.44444,1.47276 c 0.30556,-0.26351 2.35556,-0.88173 4.55556,-1.37384 2.92123,-0.65343 3.46061,-0.52973 2,0.45868 -1.80049,1.21841 -7.89353,2.069 -6.55556,0.91516 z m 27.22223,-14.18757 c 2.86432,-2.93334 5.50786,-5.33334 5.87453,-5.33334 0.36667,0 -1.67688,2.4 -4.5412,5.33334 -2.86432,2.93333 -5.50787,5.33333 -5.87453,5.33333 -0.36667,0 1.67688,-2.4 4.5412,-5.33333 z m -64.76759,-1 -3.23241,-3.66667 3.66667,3.23241 c 3.42705,3.02119 4.27812,4.10092 3.23241,4.10092 -0.23883,0 -1.88883,-1.65 -3.66667,-3.66666 z m 120.10092,-2.17008 c 0,-0.27687 1.05,-1.32687 2.33333,-2.33334 2.11475,-1.65849 2.16191,-1.61133 0.50342,0.50342 -1.74183,2.221 -2.83675,2.9273 -2.83675,1.82992 z m 12,0 c 0,-0.27687 1.05,-1.32687 2.33333,-2.33334 2.11475,-1.65849 2.16191,-1.61133 0.50342,0.50342 -1.74183,2.221 -2.83675,2.9273 -2.83675,1.82992 z m -201.24881,-3.66667 c -0.13837,-3.5528 3.28464,-5.59469 6.49692,-3.87553 1.51353,0.81002 2.75189,1.77277 2.75189,2.13944 0,0.36666 -1.16056,0.0456 -2.57901,-0.71359 -3.58008,-1.916 -4.01031,-1.78645 -5.37944,1.61976 -0.81601,2.03016 -1.23317,2.29845 -1.29036,0.82992 z m 196.32316,-4.39932 c 3.76161,-3.44948 8.12673,-4.46863 9.51546,-2.22161 0.41096,0.66494 -0.49645,0.88377 -2.01646,0.48628 -1.66184,-0.43459 -4.45334,0.45112 -7.00184,2.22161 l -4.23818,2.94433 z m -136.30241,-6.87504 c 0.064,-1.55327 0.37992,-1.8692 0.80554,-0.80556 0.38516,0.96249 0.3378,2.11251 -0.1052,2.55556 -0.44305,0.44305 -0.75818,-0.34445 -0.70029,-1.75 z m 85.59121,-5.88889 c 0,-3.3 0.26002,-4.65 0.57782,-3 0.31782,1.65 0.31782,4.35 0,6 -0.3178,1.65 -0.57782,0.3 -0.57782,-3 z m -85.59121,-6.11111 c 0.064,-1.55327 0.37992,-1.8692 0.80554,-0.80556 0.38516,0.96249 0.3378,2.11251 -0.1052,2.55556 -0.44305,0.44305 -0.75818,-0.34445 -0.70029,-1.75 z m 83.99999,-4 c 0.064,-1.55327 0.37992,-1.8692 0.80555,-0.80556 0.38516,0.96249 0.3378,2.11251 -0.1052,2.55556 -0.44305,0.44305 -0.75819,-0.34445 -0.70029,-1.75 z m -81.43859,-3.14353 c 0,-0.69005 0.59313,-1.62123 1.31806,-2.06925 0.75582,-0.46712 0.97934,0.0681 0.52402,1.25464 -0.88639,2.30989 -1.84208,2.73251 -1.84208,0.81461 z m 76.53998,-5.74536 -2.53999,-3 3,2.53999 c 2.81926,2.38696 3.60699,3.46001 2.53999,3.46001 -0.25301,0 -1.60301,-1.35 -3,-3 z m -104.0612,-2.74192 c -7.41829,-2.81899 -15.7203,-11.84367 -27.83509,-30.25808 -14.66653,-22.29305 -27.83932,-35.88228 -41.97702,-43.30405 -9.2264,-4.84354 -10.99155,-5.29123 -22.81726,-5.7872 -23.67458,-0.99291 -38.50781,6.26026 -47.90478,23.42458 -1.70628,3.11667 -3.59523,5.66667 -4.19767,5.66667 -1.56647,0 -0.28715,-19.89144 2.18672,-34 1.15727,-6.6 4.53377,-21.77204 7.50333,-33.71564 6.51312,-26.19578 6.90656,-37.03872 2.62287,-72.28436 -7.10335,-58.44539 -4.16709,-105.40873 7.80563,-124.84555 6.18284,-10.03738 18.05789,-14.61586 28.97638,-11.17199 13.44403,4.24047 23.37532,11.94704 49.82477,38.66339 14.3,14.44429 27.43414,27.02416 29.18696,27.95524 3.46559,1.84085 10.98324,1.25262 24.81304,-1.94156 31.16562,-7.19815 67.09823,-8.41558 99.33333,-3.36554 28.07296,4.398 30.80386,4.57492 36.14848,2.34179 3.28531,-1.37269 9.61988,-7.6152 20.11207,-19.8198 38.03712,-44.24505 60.3903,-57.87705 76.76689,-46.81597 2.9858,2.01666 6.6096,5.17677 8.05289,7.02246 4.2463,5.43019 9.20822,18.5579 11.59704,30.68219 3.2108,16.29608 4.0381,55.32841 1.82198,85.96201 -1.00798,13.93333 -1.82056,33.43333 -1.80574,43.33333 0.0241,16.09628 0.4315,19.26915 3.85206,30 9.11186,28.58537 17.34869,69.97231 14.49401,72.82699 -1.08371,1.0837 -2.36843,0.0712 -4.80288,-3.78522 -4.73036,-7.49336 -14.69205,-15.82524 -21.82791,-18.25666 -15.12449,-5.15344 -36.985,-3.36219 -50.59269,4.14558 -13.39392,7.38983 -30.36932,27.4206 -43.77873,51.65839 -6.45161,11.66141 -13.9064,19.79747 -21.51429,23.48039 -7.2173,3.49382 -9.27408,3.09001 -24.91316,-4.8913 -30.06316,-15.34253 -55.83547,-14.91885 -87.00865,1.43036 -14.6827,7.70054 -17.18382,8.2863 -24.12258,5.64955 z m 5.52122,-66.46747 c 5.86666,-0.85818 11.41666,-2.13562 12.33333,-2.83873 2.48731,-1.90785 2.00999,-6.15859 -1.55013,-13.80463 -6.93655,-14.8976 -18.65959,-23.01572 -30.82759,-21.3479 -6.99052,0.95816 -18.62645,6.34025 -24.73787,11.44229 l -4.23077,3.532 8.32317,8.32317 c 8.67123,8.67123 13.0647,11.53823 22.02319,14.37143 6.83563,2.16181 6.17055,2.15033 18.66667,0.32237 z m -17.71924,-20.3228 c 0.94558,-1.02604 1.92932,-1.66596 2.18609,-1.42204 0.79085,0.75128 -1.21352,3.28756 -2.59811,3.28756 -0.71897,0 -0.53356,-0.83948 0.41202,-1.86552 z m 1.05257,-6.06769 c 0,-1.10051 -1.17496,-1.48639 -3.29299,-1.08149 -1.81113,0.34621 -2.97573,0.11613 -2.58797,-0.51124 0.99664,-1.6126 5.55191,-1.41851 6.60245,0.28132 0.48338,0.78212 0.51879,1.78212 0.0787,2.22222 -0.44008,0.4401 -0.80016,0.0302 -0.80016,-0.91081 z m 163.95906,20.62063 c 7.07342,-3.58438 21.37427,-17.08035 21.37427,-20.17128 0,-2.3468 -7.16029,-7.99838 -14.39268,-11.36006 -4.27685,-1.98792 -9.03276,-2.95438 -14.94065,-3.03614 -7.53707,-0.10427 -9.43646,0.40142 -14.57266,3.88006 -6.96492,4.71719 -12.73149,13.24544 -15.5934,23.06126 -1.61037,5.5233 -1.71098,7.48033 -0.46196,8.98532 0.87826,1.05824 2.01698,1.66441 2.53047,1.34704 0.51351,-0.31736 3.89552,-0.0465 7.51559,0.60182 10.53892,1.88754 20.58613,0.72303 28.54102,-3.30802 z m -2.62573,-15.8781 c 0,-0.28821 0.93116,-0.88133 2.06925,-1.31806 1.18656,-0.45532 1.72176,-0.2318 1.25464,0.52401 -0.78301,1.26695 -3.32389,1.87393 -3.32389,0.79405 z m -236.0245,-84.17238 c 12.02816,-8.05999 29.60651,-24.62436 36.5443,-34.43632 10.13091,-14.32785 10.70694,-20.96917 3.13979,-36.20061 -10.7159,-21.56943 -36.43133,-53.56551 -47.1319,-58.64325 -6.05052,-2.87116 -9.8721,-1.88142 -14.9158,3.86304 -9.16502,10.43837 -11.35199,45.52805 -5.69947,91.44687 3.28895,26.71802 3.59405,28.25851 6.9078,34.877 4.08659,8.16206 7.86323,8.00019 21.15528,-0.90673 z M 594.555,364.7855 c 3.90526,-4.15696 6.22598,-19.27268 8.08662,-52.67138 2.27616,-40.85749 -0.83952,-65.59833 -9.50366,-75.46625 -3.52767,-4.0178 -4.89595,-4.64788 -10.09331,-4.64788 -5.69051,0 -6.52727,0.51755 -15.62899,9.66667 -10.27401,10.32753 -24.79557,31.26063 -33.2709,47.96064 -9.83396,19.37704 -7.98765,28.22398 9.76881,46.80948 9.94791,10.41234 28.93024,25.66629 36.73267,29.51786 5.85621,2.89084 10.458,2.50403 13.90876,-1.16914 z M 398.3111,537.16787 c 0.90445,-0.91123 1.98032,-1.3209 2.39084,-0.91038 0.41052,0.41052 -0.32948,1.15607 -1.64444,1.65678 -1.90027,0.72357 -2.05342,0.57042 -0.7464,-0.7464 z m 9.43889,-3.41203 c 0.96249,-0.38516 2.11251,-0.3378 2.55556,0.1052 0.44305,0.44305 -0.34445,0.75819 -1.75,0.70029 -1.55327,-0.064 -1.8692,-0.37992 -0.80556,-0.80554 z m 6.59888,-1.36553 c 1.65855,-0.31892 4.05855,-0.30682 5.33333,0.0269 1.27479,0.33372 -0.0823,0.59467 -3.01554,0.57987 -2.93334,-0.0148 -3.97634,-0.28786 -2.31779,-0.60678 z m 28.06778,0.0323 c 0.9625,-0.38516 2.11251,-0.3378 2.55556,0.1052 0.44306,0.44306 -0.34445,0.75819 -1.75,0.7003 -1.55326,-0.064 -1.8692,-0.37992 -0.80556,-0.80555 z m -15.99999,-1.33333 c 0.96249,-0.38516 2.1125,-0.3378 2.55555,0.1052 0.44306,0.44305 -0.34445,0.75819 -1.75,0.70029 -1.55326,-0.064 -1.86919,-0.37992 -0.80555,-0.80554 z m 5.33333,0 c 0.96249,-0.38516 2.1125,-0.3378 2.55556,0.1052 0.44305,0.44305 -0.34446,0.75819 -1.75,0.70029 -1.55327,-0.064 -1.8692,-0.37992 -0.80556,-0.80554 z"
         style="fill:#585858;stroke-width:1.33333" />
      <path
         id="path4934"
         d="m 411.99999,679.44313 c -20.10227,-3.48406 -35.52809,-15.22549 -53.38127,-40.63143 -4.84521,-6.89497 -14.91754,-24.79664 -19.21165,-34.14505 -2.02109,-4.4 -6.06453,-11.71863 -8.98543,-16.26361 -2.92088,-4.545 -5.11066,-9.29528 -4.86617,-10.55619 1.41275,-7.28599 10.4018,-0.18551 22.1432,17.49101 5.33427,8.03067 11.63427,16.63819 14,19.12782 10.26395,10.8015 22.08789,12.09793 44.39524,4.86764 17.96976,-5.82439 24.8062,-5.92888 43.07825,-0.6584 22.15752,6.39121 34.33721,5.04217 45.0096,-4.98534 4.46743,-4.19748 8.11028,-9.60073 15.0334,-22.29829 5.98117,-10.96993 11.73455,-17.91089 15.66384,-18.89708 6.18816,-1.55312 6.53099,1.44321 1.10112,9.62365 -2.78035,4.18876 -6.21217,10.67583 -7.62628,14.4157 -1.41412,3.73986 -6.57223,14.58706 -11.46248,24.10488 -16.79571,32.6892 -36.03259,52.23201 -56.96176,57.86765 -7.97896,2.1485 -28.07516,2.64498 -37.92961,0.93704 z m 36.38516,-8.78932 c 11.94398,-5.2834 20.10125,-18.06589 23.05273,-36.12381 l 0.78509,-4.80332 -7.20868,-0.84724 c -3.96476,-0.46599 -11.96493,-2.43006 -17.77814,-4.36462 -12.35106,-4.11026 -22.64473,-4.55934 -32.01128,-1.39654 -15.05701,5.08429 -23.85915,7.54837 -26.96415,7.54837 -3.16264,0 -3.26713,0.26773 -2.53085,6.48448 0.71497,6.03676 6.84184,20.81887 10.61717,25.61571 5.3947,6.85434 16.49124,10.36147 33.15012,10.47727 10.09248,0.0701 14.12319,-0.48261 18.88799,-2.5903 z m -29.05183,-72.60588 c -11.27432,-3.14643 -18.42672,-6.98259 -24.18834,-12.97335 -7.48338,-7.78097 -10.17624,-13.61794 -10.34048,-22.41366 -0.3601,-19.28501 11.76058,-28.30271 40.58022,-30.19137 10.92851,-0.71619 14.30433,-0.41644 22.09087,1.9615 16.13232,4.9267 21.8329,12.09638 21.85029,27.48131 0.0189,16.78097 -17.8404,33.9511 -38.769,37.27284 -2.50629,0.39778 -7.55689,-0.114 -11.22356,-1.13727 z M 345.99999,472.80156 c -8.95849,-2.8332 -13.35196,-5.7002 -22.02319,-14.37143 l -8.32317,-8.32317 4.23077,-3.532 c 6.11142,-5.10204 17.74735,-10.48413 24.73787,-11.44229 12.168,-1.66782 23.89104,6.4503 30.82759,21.3479 3.56012,7.64604 4.03744,11.89678 1.55013,13.80463 -1.47251,1.12947 -20.86019,4.55636 -24.33333,4.30107 -0.73334,-0.0539 -3.73334,-0.85703 -6.66667,-1.78471 z m 2.66667,-23.46824 c 0,-3.81836 -0.543,-4.74381 -2.98711,-5.09104 -3.98143,-0.56564 -6.96713,5.26637 -4.3256,8.44923 0.96032,1.1571 2.99853,1.92488 4.52936,1.70616 2.21633,-0.31667 2.78335,-1.34836 2.78335,-5.06435 z m 134.75137,21.32877 c -3.62007,-0.64836 -7.00208,-0.91918 -7.51559,-0.60182 -0.51349,0.31737 -1.65221,-0.2888 -2.53047,-1.34704 -1.24902,-1.50499 -1.14841,-3.46202 0.46196,-8.98532 2.86191,-9.81582 8.62848,-18.34407 15.5934,-23.06126 5.1362,-3.47864 7.03559,-3.98437 14.57266,-3.88006 5.90789,0.0817 10.6638,1.04822 14.94065,3.03614 7.23239,3.36168 14.39268,9.01326 14.39268,11.36006 0,3.09093 -14.30085,16.5869 -21.37427,20.17128 -7.95489,4.03105 -18.0021,5.19556 -28.54102,3.30802 z m 29.64937,-22.77624 c 0.52148,-4.48609 -2.88329,-7.58514 -5.73408,-5.2192 -2.0726,1.72011 -2.70877,6.84678 -1.05487,8.5007 2.15523,2.15522 6.3952,0.10586 6.78895,-3.2815 z"
         style="fill:#030303;stroke-width:1.33333" />
    </g>
  </g>
</svg>
